<svg width="20" height="20" viewBox="0 0 20 20" fill="none" xmlns="http://www.w3.org/2000/svg">
<g clip-path="url(#clip0_2311_46)">
<path d="M4.71509 9.16829L3.49009 11.925C1.94343 15.4033 1.17093 17.1425 2.01509 17.9866C2.85926 18.8308 4.59676 18.0575 8.07509 16.5116L10.8334 15.285C12.9309 14.3525 13.9801 13.8866 14.1468 12.9875C14.3134 12.0883 13.5018 11.2766 11.8784 9.65413L10.3468 8.12163C8.72426 6.49829 7.91259 5.68663 7.01343 5.85413C6.11426 6.02079 5.64843 7.06996 4.71593 9.16746M5.41676 8.74996L11.2501 14.5833M3.75009 12.9166L7.08343 16.25M13.3334 6.66663L15.8334 4.16663M11.8309 1.66663C12.1643 2.22246 12.4301 3.66663 10.8334 4.99996M18.3334 8.16913C17.7776 7.83579 16.3334 7.56996 15.0001 9.16663M15.0001 1.66663V1.68329M18.3334 4.99996V5.01663M17.5001 10.8333V10.85M9.16676 2.49996V2.51663" stroke="#CE927E" stroke-width="1.5" stroke-linecap="round" stroke-linejoin="round"/>
</g>
<defs>
<clipPath id="clip0_2311_46">
<rect width="20" height="20" fill="white"/>
</clipPath>
</defs>
</svg>
