<svg width="20" height="20" viewBox="0 0 20 20" fill="none" xmlns="http://www.w3.org/2000/svg">
<path d="M4.16675 12.5C4.16675 13.266 4.31763 14.0245 4.61078 14.7323C4.90394 15.44 5.33362 16.0831 5.87529 16.6247C6.41697 17.1664 7.06003 17.5961 7.76776 17.8893C8.47549 18.1824 9.23404 18.3333 10.0001 18.3333C10.7661 18.3333 11.5247 18.1824 12.2324 17.8893C12.9401 17.5961 13.5832 17.1664 14.1249 16.6247C14.6665 16.0831 15.0962 15.44 15.3894 14.7323C15.6825 14.0245 15.8334 13.266 15.8334 12.5C15.8334 11.7339 15.6825 10.9754 15.3894 10.2676C15.0962 9.55991 14.6665 8.91685 14.1249 8.37517C13.5832 7.83349 12.9401 7.40381 12.2324 7.11066C11.5247 6.81751 10.7661 6.66663 10.0001 6.66663C9.23404 6.66663 8.47549 6.81751 7.76776 7.11066C7.06003 7.40381 6.41697 7.83349 5.87529 8.37517C5.33362 8.91685 4.90394 9.55991 4.61078 10.2676C4.31763 10.9754 4.16675 11.7339 4.16675 12.5Z" stroke="#D2962D" stroke-width="1.5"/>
<path d="M10.0001 6.66663L6.66675 3.33329L8.33341 1.66663H10.0001M10.0001 6.66663L13.3334 3.33329L11.6667 1.66663H10.0001" stroke="#D2962D" stroke-width="1.5"/>
</svg>
