<svg width="30" height="30" viewBox="0 0 30 30" fill="none" xmlns="http://www.w3.org/2000/svg">
<path opacity="0.5" d="M15 2.5V5M15 25V27.5M2.5 15H5M25 15H27.5" stroke="#D2962D" stroke-width="1.5" stroke-linecap="round"/>
<path d="M7.5 22.5L7.92875 22.0712M22.0712 7.92875L22.5 7.5M22.5 22.5L22.0712 22.0712M7.92875 7.92875L7.5 7.5" stroke="#D2962D" stroke-width="1.5" stroke-linecap="round"/>
<path d="M15 12.375L14.3187 13.02C14.4064 13.1127 14.512 13.1865 14.6291 13.237C14.7463 13.2874 14.8725 13.3134 15 13.3134C15.1275 13.3134 15.2537 13.2874 15.3709 13.237C15.488 13.1865 15.5936 13.1127 15.6813 13.02L15 12.375ZM14.0675 18.46C13.2762 17.8262 12.51 17.2787 11.895 16.575C11.3125 15.9087 10.9375 15.1712 10.9375 14.2237H9.0625C9.0625 15.7462 9.6925 16.9037 10.4825 17.8087C11.2412 18.6762 12.2137 19.3775 12.895 19.9225L14.0675 18.46ZM10.9375 14.2237C10.9375 13.3312 11.4337 12.6187 12.0512 12.3312C12.6062 12.0737 13.4325 12.0825 14.3187 13.0187L15.6813 11.7312C14.3175 10.29 12.6437 9.98875 11.2612 10.6312C9.94125 11.2437 9.0625 12.645 9.0625 14.2237H10.9375ZM12.895 19.9225C13.145 20.1225 13.45 20.3675 13.77 20.5575C14.0862 20.745 14.5075 20.9362 15 20.9362V19.0612C14.9913 19.0612 14.9138 19.0562 14.7263 18.945C14.4963 18.7979 14.2763 18.6359 14.0675 18.46L12.895 19.9225ZM17.105 19.9225C17.7863 19.3775 18.7587 18.6762 19.5175 17.8087C20.3075 16.905 20.9375 15.7462 20.9375 14.2237H19.0625C19.0625 15.1712 18.6875 15.9087 18.105 16.575C17.49 17.2787 16.7238 17.825 15.9325 18.46L17.105 19.9225ZM20.9375 14.2237C20.9375 12.6462 20.0588 11.2437 18.7388 10.6312C17.3563 9.98875 15.6825 10.29 14.3187 11.7312L15.6813 13.0187C16.5675 12.0825 17.3938 12.0737 17.9488 12.3312C18.5662 12.6187 19.0625 13.33 19.0625 14.2237H20.9375ZM15.9325 18.46C15.665 18.675 15.46 18.835 15.2737 18.945C15.0875 19.055 15.0087 19.0612 15 19.0612V20.9362C15.4913 20.9362 15.9137 20.745 16.2312 20.5575C16.55 20.3675 16.855 20.1237 17.1063 19.9225L15.9325 18.46Z" fill="#D2962D"/>
</svg>
