<svg width="167" height="13" viewBox="0 0 167 13" fill="none" xmlns="http://www.w3.org/2000/svg">
<path d="M78.8821 3.55251H21.5454C15.3851 3.55251 9.23885 3.38052 3.10661 3.03653L0 2.85852L3.10661 2.68309C9.23262 2.3391 15.3789 2.16711 21.5454 2.16711H78.8821V3.55251ZM163.893 2.67793C157.767 2.33394 151.621 2.16195 145.455 2.16195H88.1179V3.55251H145.455C151.615 3.55251 157.761 3.38052 163.893 3.03653L167 2.85852L163.893 2.67793ZM83.5 0C82.9918 0 82.4951 0.166439 82.0725 0.478269C81.65 0.7901 81.3207 1.23332 81.1262 1.75187C80.9317 2.27042 80.8809 2.84103 80.98 3.39152C81.0791 3.94202 81.3239 4.44768 81.6832 4.84457C82.0425 5.24145 82.5003 5.51173 82.9987 5.62123C83.4972 5.73073 84.0138 5.67453 84.4833 5.45974C84.9528 5.24495 85.354 4.88121 85.6364 4.41452C85.9187 3.94784 86.0694 3.39916 86.0694 2.83788C86.0694 2.08523 85.7987 1.3634 85.3168 0.831197C84.835 0.298992 84.1814 0 83.5 0ZM82.3975 7.36817C82.1615 7.6288 82.0074 7.96614 81.9578 8.33065C81.9082 8.69516 81.9657 9.06764 82.1219 9.39339L83.5 12.2648L84.8781 9.39339C85.0343 9.06764 85.0918 8.69516 85.0422 8.33065C84.9926 7.96614 84.8385 7.6288 84.6025 7.36817C84.3097 7.04615 83.9132 6.86536 83.5 6.86536C83.0868 6.86536 82.6904 7.04615 82.3975 7.36817ZM78.5178 4.88373C78.1838 4.88392 77.8587 5.00226 77.5901 5.2214C77.3215 5.44054 77.1235 5.74896 77.0252 6.10144L76.1633 9.19731L78.9662 8.24533C79.2854 8.13672 79.5646 7.91805 79.763 7.62137C79.9614 7.3247 80.0686 6.96562 80.0687 6.59678C80.0663 6.14329 79.9021 5.70914 79.6118 5.38847C79.3214 5.06779 78.9283 4.88644 78.5178 4.88373ZM86.9266 6.6071C86.9268 6.97594 87.0339 7.33501 87.2323 7.63169C87.4307 7.92837 87.71 8.14704 88.0291 8.25565L90.8321 9.20763L89.9702 6.11176C89.8718 5.75928 89.6738 5.45086 89.4052 5.23172C89.1366 5.01258 88.8115 4.89424 88.4776 4.89405C88.0662 4.8954 87.6719 5.07616 87.3806 5.39698C87.0892 5.7178 86.9244 6.15272 86.9219 6.6071H86.9266Z" fill="#D2962D"/>
</svg>
